<svg width="24" height="24" viewBox="0 0 24 24" fill="none" xmlns="http://www.w3.org/2000/svg">
<path d="M17.8334 2.50008H22.5C22.8095 2.50008 23.1062 2.623 23.325 2.84179C23.5438 3.06058 23.6667 3.35733 23.6667 3.66675V22.3334C23.6667 22.6428 23.5438 22.9396 23.325 23.1584C23.1062 23.3772 22.8095 23.5001 22.5 23.5001H1.50004C1.19062 23.5001 0.893875 23.3772 0.675083 23.1584C0.45629 22.9396 0.333374 22.6428 0.333374 22.3334V3.66675C0.333374 3.35733 0.45629 3.06058 0.675083 2.84179C0.893875 2.623 1.19062 2.50008 1.50004 2.50008H6.16671V0.166748H8.50004V2.50008H15.5V0.166748H17.8334V2.50008ZM15.5 4.83342H8.50004V7.16675H6.16671V4.83342H2.66671V9.50008H21.3334V4.83342H17.8334V7.16675H15.5V4.83342ZM21.3334 11.8334H2.66671V21.1667H21.3334V11.8334Z" fill="#E7E7F2"/>
</svg>
