<svg width="20" height="25" viewBox="0 0 20 25" fill="none" xmlns="http://www.w3.org/2000/svg">
<path d="M19.3334 24.6667H17V22.3334C17 21.4052 16.6313 20.5149 15.9749 19.8585C15.3185 19.2022 14.4283 18.8334 13.5 18.8334H6.50002C5.57176 18.8334 4.68152 19.2022 4.02515 19.8585C3.36877 20.5149 3.00002 21.4052 3.00002 22.3334V24.6667H0.666687V22.3334C0.666687 20.7863 1.28127 19.3026 2.37523 18.2086C3.46919 17.1147 4.95292 16.5001 6.50002 16.5001H13.5C15.0471 16.5001 16.5308 17.1147 17.6248 18.2086C18.7188 19.3026 19.3334 20.7863 19.3334 22.3334V24.6667ZM10 14.1667C9.08077 14.1667 8.17051 13.9857 7.32124 13.6339C6.47196 13.2821 5.70028 12.7665 5.05027 12.1165C4.40026 11.4665 3.88465 10.6948 3.53286 9.84553C3.18108 8.99625 3.00002 8.086 3.00002 7.16675C3.00002 6.2475 3.18108 5.33724 3.53286 4.48796C3.88465 3.63868 4.40026 2.86701 5.05027 2.217C5.70028 1.56699 6.47196 1.05137 7.32124 0.699591C8.17051 0.347808 9.08077 0.166748 10 0.166748C11.8565 0.166748 13.637 0.904246 14.9498 2.217C16.2625 3.52976 17 5.31023 17 7.16675C17 9.02326 16.2625 10.8037 14.9498 12.1165C13.637 13.4293 11.8565 14.1667 10 14.1667ZM10 11.8334C11.2377 11.8334 12.4247 11.3418 13.2999 10.4666C14.175 9.59141 14.6667 8.40443 14.6667 7.16675C14.6667 5.92907 14.175 4.74209 13.2999 3.86692C12.4247 2.99175 11.2377 2.50008 10 2.50008C8.76234 2.50008 7.57536 2.99175 6.70019 3.86692C5.82502 4.74209 5.33335 5.92907 5.33335 7.16675C5.33335 8.40443 5.82502 9.59141 6.70019 10.4666C7.57536 11.3418 8.76234 11.8334 10 11.8334Z" fill="#E7E7F2"/>
</svg>
