<svg width="22" height="23" viewBox="0 0 22 23" fill="none" xmlns="http://www.w3.org/2000/svg">
<path d="M21.5 21.3334C21.5 21.6428 21.3771 21.9396 21.1583 22.1584C20.9395 22.3772 20.6428 22.5001 20.3333 22.5001H1.66667C1.35725 22.5001 1.0605 22.3772 0.841709 22.1584C0.622917 21.9396 0.5 21.6428 0.5 21.3334V9.07174C0.499877 8.89395 0.540387 8.71849 0.618435 8.55876C0.696484 8.39902 0.810007 8.25923 0.950334 8.15007L10.2837 0.891073C10.4885 0.731759 10.7405 0.645264 11 0.645264C11.2595 0.645264 11.5115 0.731759 11.7163 0.891073L21.0497 8.15007C21.19 8.25923 21.3035 8.39902 21.3816 8.55876C21.4596 8.71849 21.5001 8.89395 21.5 9.07174V21.3334ZM19.1667 20.1667V9.64107L11 3.28974L2.83333 9.64107V20.1667H19.1667Z" fill="#E7E7F2"/>
</svg>
